<svg xmlns="http://www.w3.org/2000/svg" width="419.487" height="419.676" viewBox="0 0 419.487 419.676">
  <defs>
    <style>
      .cls-1, .cls-3 {
        fill: none;
        stroke: #6378e5;
      }

      .cls-1 {
        stroke-width: 10.7px;
      }

      .cls-2 {
        fill: #6378e5;
      }

      .cls-3 {
        stroke-width: 10.716px;
      }
    </style>
  </defs>
  <g id="Group_3" data-name="Group 3" transform="translate(2.584 2.629)">
    <g id="g3157">
      <path id="path3784" class="cls-1" d="M411.553,207.209C411.6,320.1,320.128,411.65,207.245,411.7S2.814,320.269,2.767,207.38q0-.086,0-.171C2.719,94.32,94.191,2.768,207.074,2.721S411.506,94.15,411.553,207.038Z"/>
      <path id="path2996" class="cls-2" d="M177.167,127.255c-.24,33.531-10.508,60.659-22.934,60.593s-22.305-27.3-22.065-60.834v-.091c.24-33.53,10.508-60.658,22.934-60.592s22.305,27.3,22.065,60.834Z"/>
      <path id="path2996-2" class="cls-2" d="M288.953,126.541c-.24,33.531-10.508,60.659-22.934,60.592s-22.306-27.3-22.065-60.833v-.091c.24-33.531,10.508-60.659,22.935-60.592s22.3,27.3,22.065,60.833Z"/>
      <path id="path3898" class="cls-3" d="M352.667,210.986c0,76.734-64.395,138.94-143.83,138.941-77.555,0-141.144-59.4-143.75-134.273"/>
      <path id="path3081-0" class="cls-2" d="M57.885,222.668a7.681,7.681,0,0,0-2.652,1.468c-3.182,2.407-8.135,1.929-10.033-.968-1.484-2.265-1.493-2.722-.094-4.857,3.641-5.557,17.908-9.312,29.269-7.7,8.795,1.246,11.65,4.623,8.061,9.532-1.044,1.427-2.5,1.814-6.329,1.679l-4.972-.176Z"/>
      <path id="path3081-0-8" class="cls-2" d="M356.989,221.026a7.68,7.68,0,0,1,2.652,1.469c3.182,2.406,8.135,1.928,10.033-.969,1.484-2.264,1.493-2.721.094-4.856-3.641-5.557-17.908-9.312-29.269-7.7-8.794,1.245-11.65,4.623-8.06,9.532,1.043,1.427,2.5,1.814,6.328,1.679L343.74,220Z"/>
    </g>
  </g>
</svg>
