<svg xmlns="http://www.w3.org/2000/svg" width="343.705" height="343.859" viewBox="0 0 343.705 343.859">
  <defs>
    <style>
      .cls-1, .cls-2 {
        fill: none;
        stroke: #000;
        stroke-width: 10.7px;
      }

      .cls-2 {
        stroke-linecap: round;
      }
    </style>
  </defs>
  <g id="Group_5" data-name="Group 5" transform="translate(5.35 5.35)">
    <g id="g3157" transform="translate(0 0)">
      <path id="path3784" class="cls-1" d="M335.771,169.3a166.5,166.5,0,1,1-333,.139q0-.07,0-.139a166.5,166.5,0,1,1,333-.139Z" transform="translate(-2.766 -2.721)"/>
      <path id="path2996" d="M168.824,115.961c-.2,27.315-8.56,49.414-18.682,49.36s-18.17-22.242-17.975-49.556v-.074c.2-27.314,8.56-49.413,18.682-49.359s18.17,22.242,17.975,49.556Z" transform="translate(-26.754 -14.513)"/>
      <path id="path2996-2" d="M280.61,115.247c-.2,27.315-8.56,49.414-18.682,49.359s-18.171-22.241-17.975-49.556v-.074c.2-27.315,8.56-49.414,18.683-49.359s18.17,22.242,17.975,49.556Z" transform="translate(-47.477 -14.381)"/>
      <path id="path3081-0" d="M8.434,7.592a4.69,4.69,0,0,0-1.619.9C4.872,9.958,1.848,9.666.689,7.9-.217,6.515-.223,6.236.632,4.932,2.855,1.539,11.566-.753,18.5.229c5.37.761,7.113,2.823,4.922,5.82-.637.871-1.529,1.108-3.864,1.025l-3.036-.107Z" transform="translate(258.789 222.002) rotate(90)"/>
      <path id="path3081-0-8" d="M15.912,7.592a4.689,4.689,0,0,1,1.619.9C19.474,9.958,22.5,9.666,23.657,7.9c.906-1.382.912-1.661.057-2.965C21.491,1.539,12.78-.753,5.843.229.474.989-1.27,3.052.922,6.049c.637.871,1.529,1.108,3.864,1.025l3.036-.107Z" transform="translate(74.216 246.347) rotate(-90)"/>
      <path id="Path_13" data-name="Path 13" class="cls-2" d="M99.659,263.187H274.014" transform="translate(-20.728 -29.012)"/>
    </g>
  </g>
</svg>
