<svg xmlns="http://www.w3.org/2000/svg" width="419.487" height="419.676" viewBox="0 0 419.487 419.676">
  <defs>
    <style>
      .cls-1, .cls-3 {
        fill: none;
        stroke: #f76d57;
      }

      .cls-1 {
        stroke-width: 10.7px;
      }

      .cls-2 {
        fill: #f76d57;
      }

      .cls-3 {
        stroke-width: 10.716px;
      }
    </style>
  </defs>
  <g id="Group_4" data-name="Group 4" transform="translate(2.584 2.629)">
    <g id="g3157">
      <path id="path3784" class="cls-1" d="M411.553,207.209C411.6,320.1,320.128,411.65,207.245,411.7S2.814,320.269,2.767,207.38q0-.086,0-.171C2.719,94.32,94.191,2.768,207.074,2.721S411.506,94.15,411.553,207.038Z"/>
      <path id="path2996" class="cls-2" d="M177.167,127.255c-.24,33.531-10.508,60.659-22.934,60.593s-22.305-27.3-22.065-60.834v-.091c.24-33.53,10.508-60.658,22.934-60.592s22.305,27.3,22.065,60.834Z"/>
      <path id="path2996-2" class="cls-2" d="M288.953,126.541c-.24,33.531-10.508,60.659-22.934,60.592s-22.306-27.3-22.065-60.833v-.091c.24-33.531,10.508-60.659,22.935-60.592s22.3,27.3,22.065,60.833Z"/>
      <path id="path3898" class="cls-3" d="M215.543,0c0,57.513-48.264,104.136-107.8,104.137C49.614,104.137,1.953,59.618,0,3.5" transform="translate(313.852 329.729) rotate(180)"/>
      <path id="path3081-0" class="cls-2" d="M10.353,9.32a5.757,5.757,0,0,0-1.988,1.1c-2.385,1.8-6.1,1.446-7.52-.726C-.266,8-.273,7.655.775,6.055,3.5,1.89,14.2-.925,22.713.281c6.592.934,8.732,3.465,6.042,7.144-.782,1.07-1.878,1.36-4.744,1.258l-3.727-.132Z" transform="translate(329.603 330.293) rotate(180)"/>
      <path id="path3081-0-8" class="cls-2" d="M19.533,9.319a5.756,5.756,0,0,1,1.988,1.1c2.385,1.8,6.1,1.445,7.52-.726,1.112-1.7,1.119-2.039.07-3.64C26.382,1.89,15.688-.925,7.173.281.582,1.214-1.558,3.746,1.132,7.425c.782,1.07,1.877,1.36,4.743,1.258L9.6,8.552Z" transform="translate(114.602 331.523) rotate(180)"/>
    </g>
  </g>
</svg>
